# xmcd CD database file
#
# Track frame offsets:
#	150
#	24869
#	46686
#	101839
#	148407
#	169550
#	189040
#	208886
#	255132
#
# Disc length: 3970 seconds
#
# Revision: 0
# Processed by: cddbd v1.5.2PL0 Copyright (c) Steve Scherf et al.
# Submitted via: CDex 1.51
#
DISCID=6d0f8009
DTITLE=Milcho Leviev - Anti-waltz
DYEAR=1967
DGENRE=Jazz
TTITLE0=Blues in 10
TTITLE1=Darben the Redd Roxx
TTITLE2=Ol' Man River
TTITLE3=Con Alma
TTITLE4=Blues in 10
TTITLE5=Study
TTITLE6=Blues in 9
TTITLE7=Fantasy on Porgy and Bess
TTITLE8=Anti-waltz
EXTD=YEAR: 1967
EXTT0=
EXTT1=
EXTT2=
EXTT3=
EXTT4=
EXTT5=
EXTT6=
EXTT7=
EXTT8=
PLAYORDER=
